 http://img696.imageshack.us/img696/2264/novaspace2011.jpg

Production.: USA
Genre......: Dance
Year.......: 2011
Time.......: 03:33 min.
Size.......: 58.2 MB

Descreption :
What can you write it unless it is a cool video music.
Beautiful ladies bending her slim body :]

Data Technical :
Format                           : AVI
Format/Info                      : Audio Video Interleave
File size                        : 58.2 MiB
Duration                         : 3mn 33s
Overall bit rate                 : 2 289 Kbps
Writing application              : MEncoder Sherpya-SVN-r32492-4.2.5
Writing library                  : MPlayer
Video
ID                               : 0
Format                           : MPEG-4 Visual
Format profile                   : Simple@L3
Format settings, BVOP            : No
Format settings, QPel            : No
Format settings, GMC             : No warppoints
Format settings, Matrix          : Default (H.263)
Codec ID                         : XVID
Codec ID/Hint                    : XviD
Duration                         : 3mn 33s
Bit rate                         : 1 971 Kbps
Width                            : 640 pixels
Height                           : 360 pixels
Display aspect ratio             : 16:9
Frame rate                       : 25.000 fps
Color space                      : YUV
Chroma subsampling               : 4:2:0
Bit depth                        : 8 bits
Scan type                        : Progressive
Bits/(Pixel*Frame)               : 0.342
Stream size                      : 50.1 MiB (86%)
Writing library                  : XviD 1.2.1 (UTC 2008-12-04)
Audio
ID                               : 1
Format                           : MPEG Audio
Format version                   : Version 1
Format profile                   : Layer 3
Mode                             : Joint stereo
Codec ID                         : 55
Codec ID/Hint                    : MP3
Duration                         : 3mn 33s
Bit rate mode                    : Variable
Bit rate                         : 306 Kbps
Channel(s)                       : 2 channels
Sampling rate                    : 48.0 KHz
Stream size                      : 7.76 MiB (13%)
Alignment                        : Aligned on interleaves
Interleave, duration             : 24 ms (0.60 video frame)
Interleave, preload duration     : 492 ms

Screen : 
http://img811.imageshack.us/img811/5540/novaspace2011s1.jpg 
http://img12.imageshack.us/img12/8357/novaspace2011s2.jpg 
http://img694.imageshack.us/img694/5764/novaspace2011s3.jpg 
http://img62.imageshack.us/img62/1115/novaspace2011s4.jpg 
http://img59.imageshack.us/img59/84/novaspace2011s5.jpg